<svg xmlns="http://www.w3.org/2000/svg" fill="#4D69BE" width="50" height="50" viewBox="-3 -3 23 22" id="icon"><path d="M10 8H7.5V4.5a.5.5 0 0 0-1 0v4A.5.5 0 0 0 7 9h3c.274 0 .5-.226.5-.5S10.273 8 10 8zm.5-5.17V0h-6v2.83c-1.787 1.04-3 2.954-3 5.17 0 2.214 1.213 4.126 3 5.167V16h6v-2.833c1.784-1.04 3-2.953 3-5.168 0-2.216-1.216-4.13-3-5.17zM5.5 1h4v1.366A5.932 5.932 0 0 0 7.5 2c-.706 0-1.372.143-2 .366V1zm4 14h-4V13.63a5.947 5.947 0 0 0 2 .367c.705 0 1.37-.146 2-.368V15zm-2-2a5 5 0 1 1 0-10 5 5 0 0 1 0 10z"/></svg>